<svg width="23" height="14" viewBox="0 0 23 14" fill="none" xmlns="http://www.w3.org/2000/svg">
<path fill-rule="evenodd" clip-rule="evenodd" d="M22.4806 0.972222C22.6438 0.423889 22.4806 0.0252776 21.7588 0.0252776H19.3585C18.753 0.0252776 18.4734 0.374305 18.3103 0.747639C18.3103 0.747639 17.0755 3.93653 15.3513 6.00396C14.7921 6.60187 14.5359 6.80118 14.2329 6.80118C14.0698 6.80118 13.8598 6.60187 13.8598 6.05403V0.946458C13.8598 0.298958 13.6738 0 13.1609 0H9.38605C9.01296 0 8.78013 0.298958 8.78013 0.597917C8.78013 1.22063 9.64225 1.37035 9.7353 3.11403V6.90278C9.7353 7.72479 9.5978 7.875 9.29255 7.875C8.47717 7.875 6.49671 4.66132 5.30871 0.999444C5.07771 0.274167 4.84304 0 4.23712 0H1.81391C1.11495 0 0.998535 0.348542 0.998535 0.722361C0.998535 1.39514 1.81391 4.78285 4.79629 9.26674C6.77675 12.3292 9.59596 13.9752 12.1356 13.9752C13.6738 13.9752 13.8598 13.6014 13.8598 12.9787V10.6619C13.8598 9.91472 13.9996 9.79028 14.4891 9.79028C14.8384 9.79028 15.4677 9.9891 16.889 11.4591C18.5197 13.2028 18.7993 14 19.7082 14H22.108C22.807 14 23.1333 13.6262 22.9468 12.9038C22.7373 12.1815 21.9449 11.1353 20.9196 9.88993C20.3604 9.19285 19.5216 8.42042 19.2654 8.0466C18.9162 7.54833 19.0092 7.34903 19.2654 6.90083C19.2421 6.90083 22.1781 2.46653 22.4806 0.970278" fill="white"/>
</svg>
