<svg width="26" height="36" viewBox="0 0 26 36" fill="none" xmlns="http://www.w3.org/2000/svg">
<path d="M9.28572 31.0909H16.7143V29.4545H9.28572V31.0909ZM3.71429 36C2.69286 36 1.81815 35.6793 1.09015 35.0378C0.362146 34.3964 -0.00123494 33.6262 3.15304e-06 32.7273V3.27273C3.15304e-06 2.37273 0.364003 1.602 1.092 0.960548C1.82 0.319094 2.6941 -0.00108813 3.71429 2.77821e-06H22.2857C23.3071 2.77821e-06 24.1819 0.32073 24.9099 0.962184C25.6379 1.60364 26.0012 2.37382 26 3.27273V32.7273C26 33.6273 25.636 34.398 24.908 35.0395C24.18 35.6809 23.3059 36.0011 22.2857 36H3.71429ZM3.71429 24.5455H22.2857V8.18182H3.71429V24.5455Z" fill="black"/>
</svg>
