<svg width="30" height="40" viewBox="0 0 30 40" fill="none" xmlns="http://www.w3.org/2000/svg">
<path d="M22.1299 3.75C22.1299 5.82031 20.4793 7.5 18.4448 7.5C16.4103 7.5 14.7597 5.82031 14.7597 3.75C14.7597 1.67969 16.4103 0 18.4448 0C20.4793 0 22.1299 1.67969 22.1299 3.75ZM18.6981 18.0234L17.2318 23.9844L21.0474 27.8672C21.7383 28.5703 22.1299 29.5234 22.1299 30.5156V37.5C22.1299 38.8828 21.032 40 19.6731 40C18.3143 40 17.2164 38.8828 17.2164 37.5V31.0391L11.543 25.2656C10.33 24.0313 9.83861 22.25 10.2455 20.5547L11.8117 13.9922C12.4489 11.3281 15.0898 9.70312 17.7001 10.3672C19.1588 10.7422 20.4332 11.6484 21.2623 12.9219L23.4427 16.25H25.8149V14.375C25.8149 13.3359 26.6364 12.5 27.6575 12.5C28.6785 12.5 29.5 13.3359 29.5 14.375V18.7344C29.5 18.7422 29.5 18.75 29.5 18.75V18.7656V38.125C29.5 39.1641 28.6785 40 27.6575 40C26.6364 40 25.8149 39.1641 25.8149 38.125V21.25H22.7901C21.5617 21.25 20.4102 20.625 19.7269 19.5781L18.7058 18.0156L18.6981 18.0234ZM6.24567 36.8672L9.02482 26.0938C9.25514 26.4219 9.51617 26.7344 9.80022 27.0234L13.017 30.2969L10.9902 38.1328C10.6447 39.4688 9.3012 40.2656 7.9884 39.9141C6.67559 39.5625 5.89251 38.1953 6.23799 36.8594L6.24567 36.8672ZM10.5065 9.83594L7.80414 20.8203C7.57383 21.7656 6.66024 22.375 5.71594 22.2188L2.03854 21.5938C0.96373 21.4141 0.280456 20.3203 0.564514 19.25L2.46847 12.1094C3.1978 9.39062 5.62381 7.5 8.39529 7.5H8.71773C9.91538 7.5 10.7983 8.64844 10.5065 9.82812V9.83594Z" fill="#132C33"/>
</svg>
