<svg width="62" height="40" viewBox="0 0 62 40" fill="none" xmlns="http://www.w3.org/2000/svg">
<path d="M61.6977 16.2156V16.5288C61.4519 16.7581 61.23 16.7707 61.0032 16.4787C60.9446 16.4004 60.8026 16.4066 60.698 16.3738C60.4684 16.3777 60.1823 16.153 60.0686 16.5382H59.6447C59.0392 16.5115 58.8569 16.773 58.9841 17.4955C59.0816 17.8979 58.8428 17.9363 58.5814 17.9551C58.2811 17.8987 58.2098 18.1241 58.207 18.3707C58.2034 18.6933 58.2388 19.0158 58.2571 19.3383C58.2529 19.4025 58.2649 19.5137 58.2423 19.523C57.7746 19.7219 57.9251 20.1493 57.9335 20.5219C57.8919 21.2758 57.9046 22.0093 58.4182 22.612C58.4528 22.6528 58.4182 22.8469 58.3709 22.879C58.1236 23.0316 57.9703 23.4176 57.598 23.2821C57.5782 23.2743 57.5344 23.3479 57.5019 23.3839L56.6174 23.4364C56.6386 23.6516 56.6576 23.8481 56.6767 24.0446L56.4648 24.1448L55.4001 24.281C55.2906 24.252 55.1175 24.2614 55.0807 24.1879C54.8568 23.737 54.5551 23.9875 54.2725 24.0469L53.7073 23.9585C53.4042 23.5937 53.4042 23.5937 53.0008 23.9726L52.5134 24.2677C52.4505 24.5206 52.4038 24.7092 52.3572 24.8987C52.2159 24.829 52.0365 24.7985 51.9404 24.6826C51.756 24.4611 51.6098 24.4438 51.4232 24.656C51.3397 24.742 51.2517 24.8225 51.1597 24.8971C51.0707 24.901 50.9478 24.8642 50.8976 24.9159C50.6362 25.1899 50.3755 25.0787 50.1078 24.9519C50.1339 24.8047 50.2279 24.5863 50.1735 24.5229C49.9227 24.2262 49.6874 23.8661 49.255 23.8927L49.1088 23.8082L47.9918 22.8586C47.6951 22.5165 47.4443 22.0915 46.9321 22.1541L46.6015 22.1439L46.5018 22.1056H45.9416L45.8667 22.1243L45.7198 22.1525L45.6555 22.1431H45.2316L44.737 22.6629H44.5957C44.3958 22.8054 44.2093 23.0285 43.9938 23.07C43.7324 23.1201 43.7465 23.2688 43.743 23.4614L43.2555 23.9702C43.1142 24.1182 42.9185 24.2387 42.8422 24.4211C42.7391 24.6669 42.7278 24.9597 42.6769 25.2321L42.6296 25.3222C42.6048 25.3464 42.5646 25.3668 42.5589 25.3965C42.4989 25.6666 42.5215 26.0439 42.3682 26.1793C42.2149 26.3148 41.8814 26.2279 41.6271 26.2381L41.1389 26.3163C41.0343 26.4025 40.9029 26.4674 40.8308 26.5794C40.6832 26.8072 40.5723 27.0631 40.4352 27.2996C40.3914 27.3778 40.3095 27.4835 40.2501 27.4796C39.8538 27.4522 39.6779 27.7998 39.4348 28.0346C39.3366 28.2695 38.9339 28.3391 39.1148 28.7345C38.965 29.1094 38.8774 29.4969 38.9353 29.9087C38.9318 29.9533 38.929 29.9979 38.9254 30.0418L38.8852 30.1506C38.8011 30.3893 38.6626 30.3032 38.5256 30.2242C38.4521 30.1198 38.3784 30.0154 38.3044 29.911L37.9985 29.2777H37.3874C37.1613 28.9082 37.0547 28.8777 36.6901 29.1094C36.5368 29.2073 36.3962 29.331 36.2493 29.4429C36.1666 29.7177 35.9766 29.756 35.7512 29.7279C35.5901 29.7052 35.4283 29.6856 35.2672 29.6652C34.9712 29.6214 34.6512 29.4711 34.4618 29.8915L34.2089 29.929C33.8514 29.8954 33.4848 29.6989 33.1449 29.9995L32.0852 30.7784L31.65 30.9757L31.0361 31.2003L29.97 31.8055L29.3589 32.2603L28.7682 33.1292L28.6919 33.2913C28.5068 33.7124 28.322 34.1338 28.1373 34.5555L27.7862 35.2405L27.3475 35.7837L26.7964 36.2871L26.0723 36.9548C25.9564 37.0331 25.8408 37.1114 25.7254 37.1897C25.3792 37.4136 25.0472 37.6531 24.9235 38.1134L24.607 38.7084L23.5367 39.1522L23.3954 39.2305C22.9877 39.2015 22.7525 39.553 22.4501 39.7565L22.1223 39.9374L22.0241 39.9906L21.4879 40C21.2533 39.8474 21.0251 39.6806 20.7814 39.5499C20.6789 39.4943 20.5419 39.517 20.4211 39.5045L19.3691 39.8677L18.3094 39.6931L17.7541 39.1976L17.3549 38.4422C17.3055 38.3326 17.2567 38.223 17.2073 38.1142C17.1267 38.0516 17.0525 37.9506 16.9649 37.9334C16.7078 37.8848 16.4457 37.8692 16.1878 37.8402L15.1281 37.578C14.7946 37.293 14.4456 37.03 14.139 36.7169C14.0139 36.5916 13.8564 36.3763 14.0796 36.1618C14.4675 36.0233 14.8659 36.3098 15.2969 35.9098C15.7074 35.5301 15.9024 35.1199 16.05 34.615C16.1018 34.2231 16.1536 33.8317 16.2054 33.4408C16.1306 33.0499 16.0554 32.6585 15.9801 32.2665C15.9631 31.8819 15.9466 31.497 15.9306 31.1119L15.9695 31.0132C16.05 30.8676 16.1313 30.722 16.2118 30.5757L16.837 29.9267C16.9261 29.8241 17.0667 29.7357 17.0928 29.6136C17.155 29.3318 17.1634 29.0351 17.1917 28.7446C17.1682 28.3517 17.1446 27.9587 17.1211 27.5657C17.0886 27.2281 17.0558 26.8907 17.0229 26.5535L16.9882 26.4424C16.9918 26.4334 16.9929 26.4234 16.9912 26.4138C16.9896 26.4041 16.9853 26.3953 16.9791 26.3884C16.8801 25.9996 16.7815 25.61 16.683 25.2196L16.197 24.1659L16.1539 24.0391L15.1485 22.8508L14.0704 22.014L13.0058 21.6374H12.5903L12.4907 21.675L11.9488 21.8472L10.8891 22.0218L10.1388 21.6844C9.68384 21.221 9.23381 20.7513 8.77106 20.2973C8.43265 19.9622 8.07517 19.6491 7.7304 19.3281L6.66219 18.5296L5.71408 18.0772L5.59539 17.966L5.45409 17.9167C5.44656 17.9085 5.43736 17.9025 5.42728 17.8991C5.4172 17.8957 5.40652 17.895 5.39616 17.8971L4.53212 17.6294C3.9528 17.4196 3.51548 17.656 3.16365 18.1625L2.39499 18.77L1.34939 18.9751C0.925492 18.932 0.532684 18.8451 0.3603 18.3324L0.302368 18.1758C0.302368 17.9762 0.308727 17.7766 0.311553 17.5762L0.346171 17.4658L0.396331 17.2396C0.416819 17.1613 0.437308 17.0893 0.457089 17.0141C0.649961 16.6157 0.810334 16.1875 1.23423 16.0098C1.29216 15.9863 1.32819 15.8994 1.37553 15.8422L1.36846 15.8563L2.41124 15.1956L3.11773 14.7189L3.47521 14.4997C3.58472 14.4285 3.71189 14.3768 3.8009 14.2821C3.90538 14.1682 4.03328 14.0842 4.17359 14.0372C4.31391 13.9903 4.46241 13.9819 4.6063 14.0128H4.95107L5.11851 13.5807C5.5099 12.8949 5.85255 12.1528 6.65865 11.9461L8.76541 10.7829C9.45423 10.4228 10.0498 9.79261 10.8941 9.88734C11.2636 9.84428 11.7016 10.0846 11.9538 9.57421L12.7528 8.80235L13.0036 8.60743C13.1449 8.5495 13.3209 8.52915 13.4219 8.42738C13.9079 7.92403 14.411 7.488 15.1288 7.52401C15.5209 7.5929 15.9193 7.68057 16.0564 7.0825C16.0684 7.03005 16.1369 6.99326 16.1793 6.94942C16.4358 6.9549 16.7063 6.83669 16.9028 7.18035C16.9536 7.26881 17.2186 7.20697 17.3853 7.21401C17.4934 7.12007 17.5888 6.99326 17.711 6.93689C17.9554 6.82495 17.9865 6.66839 17.8523 6.43902L18.0882 6.25584C18.178 5.91297 18.2486 5.64133 18.3193 5.36969C18.3602 5.16694 18.4825 4.92818 18.4252 4.76771C18.2642 4.31602 17.7569 4.11092 17.2397 4.21425L16.8159 4.07882C16.8476 3.96375 16.8794 3.84868 16.9155 3.71951C16.5311 3.56295 16.6406 3.22555 16.6696 2.91477C16.4167 2.55938 16.4923 2.13196 16.464 1.73115L16.4831 0.556926C16.6399 0.205441 16.8363 -0.0740252 17.2489 0.0175645C18.0649 0.49978 18.7064 1.21919 19.3613 1.9206L20.385 2.96331L21.5599 3.39151C21.603 3.40247 21.6511 3.43457 21.6885 3.42282C21.9563 3.33828 22.2254 3.25452 22.4854 3.14649C22.5271 3.12927 22.5278 2.98992 22.5469 2.91164L22.5681 2.70654L22.8041 2.54998L22.9454 2.92182C23.1651 3.25765 23.0605 3.62636 23.0259 3.9841C23.0393 4.08117 23.021 4.21895 23.0718 4.26748C23.244 4.42908 23.4234 4.58088 23.6095 4.7223C23.7289 5.27654 23.7289 5.27967 24.2891 5.29063C24.4163 5.29063 24.5441 5.27106 24.672 5.26088C24.9793 5.05265 25.3149 4.88043 25.5799 4.61975C25.6837 4.51799 25.6286 4.21817 25.6463 4.00837L25.7452 3.87999C25.9924 3.81815 26.2079 3.82989 26.2623 4.17355L26.7908 4.071L27.327 4.10544L27.6407 4.29723C27.4584 4.4898 27.2987 4.64872 27.1461 4.81937C27.0225 4.9595 26.9116 5.11371 26.7929 5.26088C26.7392 5.85739 27.1384 6.12668 27.4838 6.43511C27.7297 6.57367 27.8646 7.16626 28.2681 6.66995C28.2758 6.66056 28.3118 6.67387 28.3337 6.6817C28.6121 6.77876 28.5669 6.61907 28.492 6.43667L28.8078 6.04996C28.8219 6.09771 28.8354 6.14546 28.8495 6.19322L28.8841 6.30359C28.8876 6.34743 28.8905 6.39127 28.894 6.43432C28.8799 6.71301 29.0932 6.60654 29.2098 6.66917C29.2829 6.71402 29.3537 6.76342 29.4217 6.81712C29.3801 6.89535 29.3279 6.96609 29.267 7.02692C29.1257 7.1279 28.9745 7.2054 28.8276 7.29308C28.6897 7.77911 28.7191 8.30451 28.9102 8.76791L29.97 8.70841C30.3437 8.38276 30.7146 8.05398 31.094 7.73615C31.1442 7.69388 31.2353 7.70719 31.306 7.69544L31.78 8.41016L31.8789 8.4493L32.0824 8.43521C32.1962 8.45312 32.3108 8.46332 32.4257 8.46574C32.6377 8.45634 32.6871 8.58159 32.6582 8.77886C32.5875 9.02232 32.2413 9.2008 32.4914 9.51941C32.6293 9.67516 32.7766 9.82032 32.9323 9.95388C33.3039 10.4517 33.814 10.2459 34.2746 10.278C34.6597 10.3069 34.8596 10.5684 34.9945 10.9434C35.0334 11.0514 35.1733 11.1156 35.2665 11.2001L35.8268 11.186L35.9031 11.1665L36.0444 11.1939L36.3065 11.4702L36.8632 12.3227L37.3125 13.0061L37.5549 13.4656L37.7986 14.6508C37.7951 14.6923 37.7922 14.7345 37.7894 14.7768L37.7421 14.8848C37.6074 15.1792 37.4729 15.474 37.3387 15.7694C37.1592 16.0904 36.9854 16.4513 37.1868 16.7973C37.4736 17.2834 37.8311 17.7171 38.1575 18.1735C38.5107 18.6283 38.8894 19.0275 39.5034 18.7942L40.5518 18.8232L41.6186 19.3023L41.8376 19.4205L42.6041 19.8221C42.9574 20.0687 43.3198 20.244 43.7451 20.0624L45.8554 18.9234L46.9257 18.4208C47.2952 18.4169 47.7029 18.6259 47.9897 18.1735L48.0745 18.1101L48.5507 17.0807C48.6771 16.9758 48.8333 16.8936 48.9244 16.7597C49.0346 16.6031 49.1738 16.3902 49.1561 16.2203C49.1215 15.8908 49.2155 15.8289 49.4698 15.8892C49.5588 16.2869 49.6952 16.6423 50.1007 16.7573L50.8312 17.0947L50.9591 17.1613L51.5243 17.4126C51.5299 17.4204 51.5374 17.4262 51.5459 17.4294C51.5544 17.4326 51.5636 17.433 51.5723 17.4306L51.8775 17.4908L51.9086 17.5049L51.9397 17.4901C52.0195 17.4744 52.1184 17.4901 52.1749 17.4384C52.5282 17.137 52.8864 16.8333 53.2213 16.5045C53.3082 16.4192 53.3216 16.243 53.3689 16.1092L53.5399 15.9002C53.631 15.4109 54.0076 15.2543 54.3439 15.0516L55.4036 14.8817L56.4436 14.9921C56.7523 15.3882 57.1578 15.1854 57.5273 15.2066H58.58L58.84 15.2168L58.9389 15.2559L59.4765 15.2974C59.8616 15.5189 60.2452 15.7491 60.7044 15.6003L61.1007 15.6097L61.1982 15.663L61.3332 15.8266L61.6977 16.2156Z" fill="#132C33"/>
</svg>
