<svg width="208" height="136" viewBox="0 0 208 136" fill="none" xmlns="http://www.w3.org/2000/svg">
<path d="M208 55.1332V56.1978C207.167 56.9776 206.415 57.0202 205.647 56.0275C205.449 55.7613 204.967 55.7826 204.613 55.6708C203.835 55.6841 202.866 54.9202 202.481 56.2297H201.044C198.993 56.1392 198.376 57.0282 198.807 59.4849C199.137 60.8529 198.328 60.9833 197.442 61.0472C196.425 60.8556 196.183 61.6221 196.174 62.4605C196.162 63.5571 196.281 64.6536 196.344 65.7502C196.329 65.9685 196.37 66.3464 196.293 66.3783C194.709 67.0544 195.219 68.5076 195.247 69.7745C195.106 72.3376 195.149 74.8315 196.889 76.881C197.007 77.0194 196.889 77.6794 196.729 77.7886C195.891 78.3076 195.372 79.6197 194.11 79.1593C194.043 79.1327 193.895 79.3828 193.785 79.5053L190.788 79.6836C190.86 80.4155 190.925 81.0836 190.989 81.7516L190.271 82.0923L186.664 82.5555C186.293 82.457 185.707 82.4889 185.582 82.2387C184.824 80.7056 183.802 81.5573 182.844 81.7596L180.929 81.4589C179.903 80.2186 179.903 80.2186 178.536 81.5068L176.884 82.5102C176.671 83.3699 176.513 84.0113 176.356 84.6554C175.877 84.4185 175.269 84.3147 174.943 83.9208C174.319 83.1676 173.823 83.109 173.191 83.8303C172.908 84.1228 172.61 84.3965 172.299 84.6501C171.997 84.6634 171.58 84.5383 171.411 84.714C170.525 85.6455 169.642 85.2676 168.735 84.8364C168.823 84.336 169.141 83.5935 168.957 83.3779C168.108 82.3691 167.31 81.1448 165.846 81.2353L165.35 80.9478L161.566 77.7193C160.561 76.5562 159.711 75.111 157.976 75.3239L156.856 75.2893L156.518 75.1589H154.62L154.366 75.2228L153.869 75.3186L153.651 75.2867H152.215L150.539 77.0539H150.061C149.383 77.5384 148.751 78.2969 148.021 78.438C147.136 78.6083 147.184 79.114 147.172 79.7688L145.52 81.4988C145.041 82.0018 144.378 82.4117 144.12 83.0319C143.77 83.8676 143.732 84.863 143.56 85.7893L143.399 86.0953C143.316 86.1779 143.179 86.2471 143.16 86.3482C142.957 87.2664 143.033 88.5493 142.514 89.0098C141.994 89.4702 140.865 89.1748 140.003 89.2094L138.349 89.4756C137.995 89.7683 137.55 89.9892 137.306 90.3698C136.805 91.1444 136.43 92.0147 135.965 92.8185C135.817 93.0847 135.539 93.444 135.338 93.4307C133.995 93.3375 133.399 94.5192 132.576 95.3177C132.243 96.1162 130.879 96.3531 131.492 97.6972C130.984 98.9721 130.688 100.29 130.884 101.69C130.872 101.841 130.862 101.993 130.85 102.142L130.714 102.512C130.429 103.324 129.96 103.031 129.496 102.762C129.247 102.407 128.997 102.052 128.746 101.698L127.71 99.5443H125.64C124.874 98.288 124.512 98.1842 123.277 98.9721C122.758 99.3048 122.282 99.7253 121.784 100.106C121.504 101.04 120.86 101.171 120.096 101.075C119.551 100.998 119.002 100.931 118.457 100.862C117.454 100.713 116.37 100.202 115.728 101.631L114.871 101.759C113.66 101.644 112.418 100.976 111.267 101.998L107.676 104.647L106.202 105.317L104.122 106.081L100.51 108.139L98.4399 109.685L96.4389 112.639L96.1804 113.19C95.5533 114.622 94.927 116.055 94.3015 117.489L93.112 119.818L91.6256 121.665L89.7587 123.376L87.3053 125.646C86.9128 125.913 86.521 126.179 86.1301 126.445C84.9573 127.206 83.8324 128.021 83.4135 129.586L82.3412 131.608L78.715 133.118L78.2364 133.384C76.8553 133.285 76.0583 134.48 75.0338 135.172L73.9233 135.787L73.5906 135.968L71.7739 136C70.9793 135.481 70.2062 134.914 69.3804 134.47C69.0333 134.281 68.569 134.358 68.1597 134.315L64.5958 135.55L61.0055 134.957L59.1243 133.272L57.7719 130.703C57.6044 130.331 57.4392 129.958 57.2717 129.588C56.9988 129.375 56.7475 129.032 56.4507 128.973C55.5795 128.808 54.6915 128.755 53.8179 128.657L50.2276 127.765C49.0979 126.796 47.9155 125.902 46.8767 124.837C46.4531 124.411 45.9193 123.68 46.6757 122.95C47.9897 122.479 49.3396 123.453 50.7997 122.093C52.1903 120.802 52.8509 119.408 53.3511 117.691C53.5266 116.358 53.7022 115.028 53.8777 113.699C53.624 112.37 53.3695 111.039 53.1142 109.706C53.0567 108.398 53.0009 107.09 52.9466 105.78L53.0783 105.445C53.3511 104.95 53.6264 104.455 53.8992 103.957L56.0175 101.751C56.3191 101.402 56.7954 101.101 56.8839 100.686C57.0946 99.728 57.1233 98.7192 57.219 97.7318C57.1392 96.3957 57.0595 95.0595 56.9797 93.7234C56.8696 92.5754 56.7587 91.4283 56.647 90.282L56.5297 89.9041C56.5418 89.8735 56.5453 89.8397 56.5398 89.8069C56.5342 89.7741 56.5199 89.7439 56.4986 89.7204C56.1635 88.3985 55.8292 87.0739 55.4957 85.7467L53.849 82.1642L53.703 81.733L50.297 77.6927L46.6445 74.8475L43.0375 73.5673H41.6302L41.2927 73.695L39.4569 74.2806L35.8666 74.8741L33.3247 73.727C31.7833 72.1513 30.2586 70.5544 28.6909 69.0107C27.5444 67.8715 26.3333 66.8069 25.1653 65.7156L21.5463 63.0008L18.3342 61.4624L17.9321 61.0845L17.4534 60.9168C17.4279 60.889 17.3967 60.8685 17.3626 60.8569C17.3284 60.8453 17.2923 60.843 17.2571 60.8502L14.3299 59.94C12.3672 59.2267 10.8856 60.0305 9.69368 61.7525L7.08955 63.8179L3.54717 64.5152C2.11107 64.3689 0.780281 64.0734 0.196267 62.3301L0 61.7978C0 61.1191 0.0215415 60.4404 0.0311155 59.759L0.148397 59.3837L0.318336 58.6145C0.387747 58.3484 0.457159 58.1035 0.524177 57.848C1.1776 56.4932 1.72093 55.0374 3.15703 54.4332C3.35329 54.3533 3.47536 54.0579 3.63573 53.8636L3.61179 53.9115L7.1446 51.6651L9.5381 50.0442L10.7492 49.299C11.1202 49.0568 11.551 48.8811 11.8526 48.5591C12.2066 48.1718 12.6399 47.8861 13.1152 47.7266C13.5906 47.5671 14.0937 47.5386 14.5812 47.6435H15.7492L16.3165 46.1743C17.6425 43.8427 18.8033 41.3196 21.5343 40.6169L28.6717 36.6618C31.0054 35.4375 33.0231 33.2949 35.8834 33.6169C37.1352 33.4706 38.6191 34.2877 39.4736 32.5523L42.1807 29.928L43.0303 29.2653C43.5091 29.0683 44.105 28.9991 44.4473 28.6531C46.094 26.9417 47.7982 25.4592 50.23 25.5816C51.5584 25.8158 52.9083 26.1139 53.3727 24.0805C53.4134 23.9022 53.6455 23.7771 53.7891 23.628C54.658 23.6467 55.5747 23.2448 56.2401 24.4132C56.4124 24.714 57.31 24.5037 57.8748 24.5276C58.241 24.2082 58.5642 23.7771 58.9782 23.5854C59.8064 23.2048 59.9117 22.6725 59.4569 21.8927L60.2564 21.2699C60.5604 20.1041 60.7997 19.1805 61.039 18.257C61.1779 17.5676 61.5919 16.7558 61.3981 16.2102C60.8524 14.6745 59.1338 13.9771 57.3818 14.3285L55.9457 13.868C56.0534 13.4768 56.1611 13.0855 56.2832 12.6463C54.9811 12.114 55.3521 10.9669 55.4502 9.91023C54.5934 8.70188 54.8495 7.24865 54.7537 5.88592L54.8183 1.89355C55.3497 0.698499 56.0151 -0.251686 57.4129 0.0597193C60.1774 1.69925 62.3507 4.14525 64.5695 6.53003L68.0376 10.0753L72.018 11.5311C72.164 11.5684 72.3268 11.6775 72.4537 11.6376C73.3608 11.3501 74.2727 11.0654 75.1535 10.6981C75.2947 10.6395 75.2971 10.1657 75.3618 9.89959L75.4336 9.20225L76.233 8.66994L76.7117 9.93419C77.4561 11.076 77.1018 12.3296 76.9846 13.546C77.03 13.876 76.9678 14.3444 77.1401 14.5094C77.7233 15.0589 78.3313 15.575 78.9616 16.0558C79.3661 17.9402 79.3661 17.9509 81.2641 17.9881C81.695 17.9881 82.1282 17.9216 82.5614 17.887C83.6026 17.179 84.7395 16.5935 85.637 15.7072C85.9889 15.3612 85.8022 14.3418 85.862 13.6285L86.1971 13.192C87.0349 12.9817 87.7649 13.0216 87.9492 14.1901L89.7395 13.8414L91.5562 13.9585L92.6189 14.6106C92.0014 15.2653 91.4604 15.8056 90.9434 16.3859C90.5246 16.8623 90.1488 17.3866 89.7467 17.887C89.5648 19.9151 90.9171 20.8307 92.0875 21.8794C92.9205 22.3505 93.3776 24.3653 94.7443 22.6778C94.7707 22.6459 94.8927 22.6911 94.9669 22.7178C95.91 23.0478 95.7568 22.5048 95.5031 21.8847L96.573 20.5699C96.6208 20.7322 96.6663 20.8946 96.7142 21.0569L96.8315 21.4322C96.8434 21.5813 96.853 21.7303 96.865 21.8767C96.8171 22.8242 97.5399 22.4623 97.9349 22.6752C98.1825 22.8277 98.4223 22.9956 98.6529 23.1782C98.5118 23.4442 98.335 23.6847 98.1287 23.8915C97.65 24.2349 97.1378 24.4984 96.64 24.7965C96.1728 26.449 96.2726 28.2353 96.92 29.8109L100.51 29.6086C101.776 28.5014 103.033 27.3835 104.318 26.3029C104.488 26.1592 104.797 26.2044 105.036 26.1645L106.642 28.5945L106.978 28.7276L107.667 28.6797C108.052 28.7406 108.441 28.7753 108.83 28.7835C109.548 28.7516 109.716 29.1774 109.618 29.8481C109.378 30.6759 108.205 31.2827 109.053 32.366C109.52 32.8956 110.019 33.3891 110.546 33.8432C111.805 35.5359 113.533 34.8359 115.094 34.9451C116.398 35.0435 117.076 35.9325 117.533 37.2074C117.664 37.5747 118.138 37.793 118.454 38.0804L120.352 38.0325L120.611 37.966L121.09 38.0591L121.978 38.9987L123.864 41.8971L125.386 44.2207L126.207 45.783L127.033 49.8127C127.021 49.9537 127.011 50.0975 127.002 50.2412L126.841 50.6085C126.385 51.6092 125.929 52.6118 125.474 53.6161C124.867 54.7073 124.278 55.9343 124.96 57.1107C125.932 58.7636 127.143 60.2381 128.249 61.7898C129.445 63.3362 130.728 64.6936 132.808 63.9004L136.36 63.9989L139.974 65.6278L140.716 66.0297L143.313 67.3951C144.51 68.2335 145.738 68.8297 147.179 68.2122L154.328 64.3396L157.954 62.6308C159.206 62.6175 160.587 63.3282 161.559 61.7898L161.846 61.5742L163.459 58.0742C163.888 57.7176 164.417 57.4381 164.725 56.983C165.099 56.4506 165.57 55.7267 165.511 55.1491C165.393 54.0286 165.712 53.8183 166.573 54.0233C166.875 55.3754 167.337 56.5837 168.711 56.975L171.186 58.1221L171.619 58.3484L173.534 59.2027C173.553 59.2293 173.578 59.2492 173.607 59.2601C173.636 59.271 173.667 59.2723 173.696 59.2639L174.73 59.4689L174.836 59.5168L174.941 59.4662C175.211 59.413 175.547 59.4662 175.738 59.2906C176.935 58.2659 178.148 57.2332 179.283 56.1153C179.577 55.8252 179.623 55.2263 179.783 54.7712L180.362 54.0606C180.671 52.3971 181.947 51.8647 183.086 51.1754L186.676 50.5978L190.2 50.9731C191.245 52.3199 192.619 51.6305 193.871 51.7024H197.437L198.318 51.737L198.653 51.8701L200.475 52.0111C201.779 52.7644 203.079 53.5469 204.635 53.0412L205.977 53.0731L206.308 53.2541L206.765 53.8104L208 55.1332Z" fill="#FFCA3C"/>
</svg>
