<svg width="71" height="70" viewBox="0 0 71 70" fill="none" xmlns="http://www.w3.org/2000/svg">
<path d="M47.9091 0C35.8182 0.318182 25.9545 10.1818 25.9545 22.2727C25.9545 34.6818 35.8182 44.5455 48.2273 44.5455C60.6364 44.5455 70.5 34.6818 70.5 22.2727C70.5 9.86364 60.6364 0 47.9091 0ZM48.2273 6.36364C57.1364 6.36364 64.1364 13.3636 64.1364 22.2727C64.1364 31.1818 57.1364 38.1818 48.2273 38.1818C39.3182 38.1818 32.3182 31.1818 32.3182 22.2727C32.3182 13.3636 39.3182 6.36364 48.2273 6.36364ZM45.0455 9.54545V25.4545L56.5 32.4545L59.0455 28.6364L49.8182 23.2273V9.54545H45.0455ZM11.9545 37.5455C16.4091 46.4545 24.0455 54.0909 32.9545 58.5455L39.9545 51.5455C40.9091 50.5909 42.1818 50.2727 43.1364 50.9091C46.6364 52.1818 50.4545 52.8182 54.5909 52.8182C56.1818 52.8182 57.7727 54.4091 57.7727 56V66.8182C57.7727 68.4091 56.1818 70 54.5909 70C24.6818 70 0.5 45.8182 0.5 15.9091C0.5 14 2.09091 12.7273 3.68182 12.7273H14.8182C16.7273 12.7273 18 14 18 15.9091C18 19.7273 18.6364 23.5455 19.9091 27.3636C20.2273 28.6364 19.9091 29.5909 19.2727 30.5455L11.9545 37.5455Z" fill="#E79814"/>
</svg>
