<svg width="73" height="70" viewBox="0 0 73 70" fill="none" xmlns="http://www.w3.org/2000/svg">
<path d="M56.6951 14C54.7634 14 53.1092 13.314 51.7324 11.942C50.358 10.5723 49.6707 8.925 49.6707 7C49.6707 5.075 50.358 3.4265 51.7324 2.0545C53.1092 0.684833 54.7634 0 56.6951 0C58.6268 0 60.2811 0.684833 61.6579 2.0545C63.0323 3.4265 63.7195 5.075 63.7195 7C63.7195 8.925 63.0323 10.5723 61.6579 11.942C60.2811 13.314 58.6268 14 56.6951 14ZM53.1829 70V42C53.1829 39.6667 52.5835 37.5667 51.3847 35.7C50.1835 33.8333 48.6463 32.375 46.7732 31.325L49.8463 22.3125C50.3146 20.8542 51.1786 19.6875 52.4383 18.8125C53.6957 17.9375 55.1146 17.5 56.6951 17.5C58.2756 17.5 59.6945 17.9375 60.9519 18.8125C62.2116 19.6875 63.0756 20.8542 63.5439 22.3125L72.5 49H63.7195V70H53.1829ZM37.378 33.25C35.9146 33.25 34.6713 32.739 33.6481 31.717C32.6225 30.6973 32.1098 29.4583 32.1098 28C32.1098 26.5417 32.6225 25.3027 33.6481 24.283C34.6713 23.261 35.9146 22.75 37.378 22.75C38.8415 22.75 40.0848 23.261 41.108 24.283C42.1336 25.3027 42.6463 26.5417 42.6463 28C42.6463 29.4583 42.1336 30.6973 41.108 31.717C40.0848 32.739 38.8415 33.25 37.378 33.25ZM12.7927 14C10.861 14 9.2079 13.314 7.83346 11.942C6.45668 10.5723 5.76829 8.925 5.76829 7C5.76829 5.075 6.45668 3.4265 7.83346 2.0545C9.2079 0.684833 10.861 0 12.7927 0C14.7244 0 16.3775 0.684833 17.7519 2.0545C19.1287 3.4265 19.8171 5.075 19.8171 7C19.8171 8.925 19.1287 10.5723 17.7519 11.942C16.3775 13.314 14.7244 14 12.7927 14ZM5.76829 70V45.5H0.5V24.5C0.5 22.575 1.18839 20.9265 2.56517 19.5545C3.93961 18.1848 5.59268 17.5 7.52439 17.5H18.061C19.9927 17.5 21.6458 18.1848 23.0202 19.5545C24.397 20.9265 25.0854 22.575 25.0854 24.5V45.5H19.8171V70H5.76829ZM32.1098 70V56H28.5976V42C28.5976 40.5417 29.1103 39.3027 30.1359 38.283C31.1591 37.261 32.4024 36.75 33.8659 36.75H40.8902C42.3537 36.75 43.597 37.261 44.6202 38.283C45.6458 39.3027 46.1585 40.5417 46.1585 42V56H42.6463V70H32.1098Z" fill="#E79814"/>
</svg>
