<svg width="78" height="70" viewBox="0 0 78 70" fill="none" xmlns="http://www.w3.org/2000/svg">
<path d="M7.5 70C5.575 70 3.92767 69.3152 2.558 67.9455C1.186 66.5735 0.5 64.925 0.5 63V21C0.5 19.075 1.186 17.4277 2.558 16.058C3.92767 14.686 5.575 14 7.5 14H18.525L25 7H46V21H56.5V31.5H70.5V63C70.5 64.925 69.8152 66.5735 68.4455 67.9455C67.0735 69.3152 65.425 70 63.5 70H7.5ZM35.5 57.75C39.875 57.75 43.5943 56.2193 46.658 53.158C49.7193 50.0943 51.25 46.375 51.25 42C51.25 37.625 49.7193 33.9057 46.658 30.842C43.5943 27.7807 39.875 26.25 35.5 26.25C31.125 26.25 27.4057 27.7807 24.342 30.842C21.2807 33.9057 19.75 37.625 19.75 42C19.75 46.375 21.2807 50.0943 24.342 53.158C27.4057 56.2193 31.125 57.75 35.5 57.75ZM35.5 50.75C33.05 50.75 30.9792 49.9042 29.2875 48.2125C27.5958 46.5208 26.75 44.45 26.75 42C26.75 39.55 27.5958 37.4792 29.2875 35.7875C30.9792 34.0958 33.05 33.25 35.5 33.25C37.95 33.25 40.0208 34.0958 41.7125 35.7875C43.4042 37.4792 44.25 39.55 44.25 42C44.25 44.45 43.4042 46.5208 41.7125 48.2125C40.0208 49.9042 37.95 50.75 35.5 50.75ZM63.5 21V14H56.5V7H63.5V0H70.5V7H77.5V14H70.5V21H63.5Z" fill="#E79814"/>
</svg>
