<svg width="71" height="70" viewBox="0 0 71 70" fill="none" xmlns="http://www.w3.org/2000/svg">
<path d="M35.5 70C44.7826 70 53.685 66.3125 60.2487 59.7487C66.8125 53.185 70.5 44.2826 70.5 35C70.5 25.7174 66.8125 16.815 60.2487 10.2513C53.685 3.68749 44.7826 0 35.5 0C26.2174 0 17.315 3.68749 10.7513 10.2513C4.18749 16.815 0.5 25.7174 0.5 35C0.5 44.2826 4.18749 53.185 10.7513 59.7487C17.315 66.3125 26.2174 70 35.5 70ZM31.125 28.4375C31.125 32.06 29.165 35 26.75 35C24.335 35 22.375 32.06 22.375 28.4375C22.375 24.815 24.335 21.875 26.75 21.875C29.165 21.875 31.125 24.815 31.125 28.4375ZM19.2469 41.8556C19.7493 41.5656 20.3464 41.4869 20.9067 41.6371C21.4671 41.7872 21.9449 42.1538 22.235 42.6562C23.5786 44.9852 25.5121 46.9191 27.8408 48.2632C30.1695 49.6073 32.8112 50.3141 35.5 50.3125C38.1888 50.3141 40.8305 49.6073 43.1592 48.2632C45.4879 46.9191 47.4214 44.9852 48.765 42.6562C48.9076 42.4055 49.0984 42.1854 49.3264 42.0086C49.5544 41.8318 49.8151 41.7019 50.0935 41.6264C50.3719 41.5508 50.6625 41.531 50.9486 41.5682C51.2347 41.6054 51.5106 41.6988 51.7604 41.843C52.0102 41.9873 52.2291 42.1795 52.4043 42.4087C52.5795 42.6378 52.7077 42.8994 52.7815 43.1783C52.8552 43.4572 52.873 43.7479 52.834 44.0338C52.7949 44.3196 52.6996 44.5949 52.5537 44.8438C50.8262 47.8378 48.3404 50.324 45.3466 52.052C42.3529 53.7801 38.9567 54.6891 35.5 54.6875C32.0433 54.6891 28.6471 53.7801 25.6534 52.052C22.6596 50.324 20.1738 47.8378 18.4463 44.8438C18.1562 44.3413 18.0776 43.7443 18.2277 43.1839C18.3779 42.6235 18.7445 42.1457 19.2469 41.8556ZM44.25 35C41.835 35 39.875 32.06 39.875 28.4375C39.875 24.815 41.835 21.875 44.25 21.875C46.665 21.875 48.625 24.815 48.625 28.4375C48.625 32.06 46.665 35 44.25 35Z" fill="#E79814"/>
</svg>
