<svg width="65" height="68" viewBox="0 0 65 68" fill="none" xmlns="http://www.w3.org/2000/svg">
<path d="M4.70437 0.507812C2.05076 5.14777 0.520309 10.5121 0.520309 16.2365C0.520309 28.0637 6.99754 38.4048 16.5943 43.8921C16.6537 42.8752 16.7298 41.8545 16.8337 40.8357C8.68354 35.6853 3.27261 26.5953 3.27261 16.2365C3.27261 10.4291 4.98571 5.04702 7.92185 0.507812H4.70437ZM14.8725 0.507812C11.1001 4.67243 8.77811 10.1759 8.77811 16.2365C8.77811 23.7606 12.321 30.474 17.8282 34.7919L17.8371 34.7551C18.0745 33.7815 18.3486 32.839 18.6752 31.938C14.296 28.1235 11.5311 22.507 11.5311 16.2365C11.5311 9.92501 14.3673 4.32922 18.8131 0.507812H14.8728H14.8725ZM45.8839 0.507812C50.3213 4.33025 53.1661 9.93547 53.1661 16.2365C53.1661 22.2982 50.5816 27.7491 46.4547 31.5513C46.7876 32.4767 47.061 33.448 47.288 34.4512C52.5537 30.1256 55.9186 23.5682 55.9186 16.2368C55.9186 10.1794 53.5898 4.67376 49.8195 0.508107H45.8836L45.8839 0.507812ZM56.6968 0.507812C59.6516 5.05453 61.4242 10.4339 61.4242 16.2365C61.4242 26.4676 56.1479 35.4599 48.1672 40.6427C48.2475 41.6792 48.3046 42.7207 48.3421 43.7541C57.8086 38.2329 64.1812 27.9665 64.1812 16.2367C64.1812 10.503 62.5985 5.14085 59.9281 0.50796H56.6969L56.6968 0.507812ZM32.3461 0.843657C23.858 0.843657 16.9488 7.75292 16.9488 16.2412C16.9488 20.4549 18.6516 24.2799 21.4047 27.0634C22.013 26.3693 22.7068 25.7646 23.4807 25.2678C21.1469 22.9758 19.7016 19.7828 19.7016 16.2412C19.7016 9.2405 25.3455 3.5964 32.3463 3.5964C39.3472 3.5964 44.9913 9.2405 44.9913 16.2412C44.9913 19.6527 43.6497 22.7392 41.4652 25.01C42.2736 25.4725 42.9962 26.046 43.6287 26.7088C46.181 23.9593 47.744 20.2782 47.744 16.2411C47.744 7.75277 40.8349 0.843804 32.3464 0.843804L32.3461 0.843657ZM31.7295 9.02825C28.5446 9.44069 25.6947 13.1394 25.6947 17.9075C25.6947 20.5362 26.6039 22.8646 27.9457 24.4764L29.4464 26.2761L27.1403 26.7091C25.3897 27.037 24.1029 27.963 23.0111 29.457C21.9196 30.9511 21.0928 33.024 20.5114 35.4088C19.4527 39.7542 19.2246 45.0567 19.1906 49.7155H24.9352L25.0317 50.9905L26.4908 70.5078H38.8184L40.1072 50.9998L40.1944 49.7154H45.663C45.66 45.0018 45.6055 39.6268 44.6457 35.248C44.1198 32.8474 43.3212 30.7789 42.2153 29.3007C41.1098 27.8226 39.7621 26.9015 37.8011 26.5987L35.4533 26.2347L36.9401 24.375C38.2236 22.7709 39.0895 20.4723 39.0895 17.9076C39.0895 12.8236 35.8993 9.03723 32.3921 9.03723C31.9985 9.03723 31.7624 9.02368 31.7292 9.02795L31.7295 9.02825Z" fill="#E79814"/>
</svg>
