<svg width="53" height="70" viewBox="0 0 53 70" fill="none" xmlns="http://www.w3.org/2000/svg">
<path d="M29.7711 68.4271C36.8516 59.627 53 38.2983 53 26.3181C53 11.7883 41.1302 0 26.5 0C11.8698 0 0 11.7883 0 26.3181C0 38.2983 16.1484 59.627 23.2289 68.4271C24.9266 70.5243 28.0734 70.5243 29.7711 68.4271ZM26.5 35.0908C21.6279 35.0908 17.6667 31.1568 17.6667 26.3181C17.6667 21.4794 21.6279 17.5454 26.5 17.5454C31.3721 17.5454 35.3333 21.4794 35.3333 26.3181C35.3333 31.1568 31.3721 35.0908 26.5 35.0908Z" fill="#E79814"/>
</svg>
