<svg width="36" height="36" viewBox="0 0 36 36" fill="none" xmlns="http://www.w3.org/2000/svg">
<path d="M18 0.5C27.6652 0.5 35.5 8.33475 35.5 18C35.5 27.6652 27.6652 35.5 18 35.5C8.33475 35.5 0.5 27.6652 0.5 18C0.5 8.33475 8.33475 0.5 18 0.5ZM14.2882 11.812C13.9741 11.4948 13.5505 11.3097 13.1043 11.2946C12.6581 11.2794 12.223 11.4354 11.888 11.7306C11.553 12.0257 11.3435 12.4378 11.3024 12.8823C11.2613 13.3269 11.3916 13.7704 11.6667 14.122L11.8138 14.2882L15.5238 17.9982L11.8138 21.7118C11.4966 22.0259 11.3114 22.4495 11.2963 22.8957C11.2812 23.3419 11.4371 23.777 11.7323 24.112C12.0275 24.447 12.4395 24.6565 12.8841 24.6976C13.3287 24.7387 13.7721 24.6084 14.1237 24.3333L14.2882 24.188L18 20.4745L21.7118 24.188C22.0259 24.5052 22.4495 24.6903 22.8957 24.7054C23.3419 24.7206 23.777 24.5646 24.112 24.2694C24.447 23.9743 24.6565 23.5622 24.6976 23.1177C24.7387 22.6731 24.6084 22.2296 24.3333 21.878L24.188 21.7118L20.4745 18L24.188 14.2882C24.5052 13.9741 24.6903 13.5505 24.7054 13.1043C24.7206 12.6581 24.5646 12.223 24.2694 11.888C23.9743 11.553 23.5622 11.3435 23.1177 11.3024C22.6731 11.2613 22.2296 11.3916 21.878 11.6667L21.7118 11.812L18 15.5255L14.2882 11.812Z" fill="#FBAC1E"/>
</svg>
