<svg width="22" height="14" viewBox="0 0 22 14" fill="none" xmlns="http://www.w3.org/2000/svg">
<path fill-rule="evenodd" clip-rule="evenodd" d="M21.4821 0.972222C21.6453 0.423889 21.4821 0.0252776 20.7602 0.0252776H18.3599C17.7545 0.0252776 17.4749 0.374305 17.3117 0.747639C17.3117 0.747639 16.077 3.93653 14.3527 6.00396C13.7936 6.60187 13.5374 6.80118 13.2344 6.80118C13.0712 6.80118 12.8613 6.60187 12.8613 6.05403V0.946458C12.8613 0.298958 12.6752 0 12.1623 0H8.38751C8.01443 0 7.78159 0.298958 7.78159 0.597917C7.78159 1.22063 8.64372 1.37035 8.73676 3.11403V6.90278C8.73676 7.72479 8.59926 7.875 8.29401 7.875C7.47863 7.875 5.49817 4.66132 4.31017 0.999444C4.07917 0.274167 3.84451 0 3.23859 0H0.815376C0.116417 0 0 0.348542 0 0.722361C0 1.39514 0.815376 4.78285 3.79776 9.26674C5.77822 12.3292 8.59743 13.9752 11.1371 13.9752C12.6752 13.9752 12.8613 13.6014 12.8613 12.9787V10.6619C12.8613 9.91472 13.0011 9.79028 13.4906 9.79028C13.8399 9.79028 14.4691 9.9891 15.8904 11.4591C17.5212 13.2028 17.8008 14 18.7097 14H21.1095C21.8084 14 22.1348 13.6262 21.9482 12.9038C21.7388 12.1815 20.9463 11.1353 19.921 9.88993C19.3619 9.19285 18.5231 8.42042 18.2669 8.0466C17.9176 7.54833 18.0107 7.34903 18.2669 6.90083C18.2435 6.90083 21.1796 2.46653 21.4821 0.970278" fill="black"/>
</svg>
