<svg width="26" height="36" viewBox="0 0 26 36" fill="none" xmlns="http://www.w3.org/2000/svg">
<path d="M19.3923 3.375C19.3923 5.23828 17.9124 6.75 16.0884 6.75C14.2644 6.75 12.7846 5.23828 12.7846 3.375C12.7846 1.51172 14.2644 0 16.0884 0C17.9124 0 19.3923 1.51172 19.3923 3.375ZM16.3156 16.2211L15.0009 21.5859L18.4218 25.0805C19.0413 25.7133 19.3923 26.5711 19.3923 27.4641V33.75C19.3923 34.9945 18.408 36 17.1897 36C15.9714 36 14.9871 34.9945 14.9871 33.75V27.9352L9.90058 22.7391C8.81306 21.6281 8.37255 20.025 8.73735 18.4992L10.1415 12.593C10.7128 10.1953 13.0805 8.73281 15.4208 9.33047C16.7286 9.66797 17.8711 10.4836 18.6145 11.6297L20.5693 14.625H22.6961V12.9375C22.6961 12.0023 23.4326 11.25 24.3481 11.25C25.2635 11.25 26 12.0023 26 12.9375V16.8609C26 16.868 26 16.875 26 16.875V16.8891V34.3125C26 35.2477 25.2635 36 24.3481 36C23.4326 36 22.6961 35.2477 22.6961 34.3125V19.125H19.9842C18.8829 19.125 17.8505 18.5625 17.2379 17.6203L16.3225 16.2141L16.3156 16.2211ZM5.15129 33.1805L7.64295 23.4844C7.84944 23.7797 8.08346 24.0609 8.33813 24.3211L11.2221 27.2672L9.405 34.3195C9.09527 35.5219 7.89074 36.2391 6.71374 35.9227C5.53674 35.6063 4.83467 34.3758 5.1444 33.1734L5.15129 33.1805ZM8.97137 8.85234L6.54854 18.7383C6.34205 19.5891 5.52297 20.1375 4.67636 19.9969L1.37938 19.4344C0.415758 19.2727 -0.196832 18.2883 0.0578401 17.325L1.76483 10.8984C2.41872 8.45156 4.59376 6.75 7.07854 6.75H7.36762C8.44138 6.75 9.23293 7.78359 8.97137 8.84531V8.85234Z" fill="black"/>
</svg>
