<svg width="47" height="40" viewBox="0 0 47 40" fill="none" xmlns="http://www.w3.org/2000/svg">
<path d="M40.674 12.5C43.8369 12.5 46.3987 9.70312 46.3987 6.25C46.3987 2.79688 43.8369 0 40.674 0C37.5112 0 34.9494 2.79688 34.9494 6.25C34.9494 9.70312 37.5112 12.5 40.674 12.5ZM4.60165 40H27.8723H33.2392H42.0265C44.4451 40 46.3987 37.8594 46.3987 35.2266C46.3987 34.3516 46.1768 33.4922 45.7618 32.7422L36.3161 15.8438C36.0228 15.3203 35.5075 15 34.9494 15C34.3912 15 33.876 15.3203 33.5826 15.8359L30.1335 22.0078L21.1244 6.32812C20.6521 5.5 19.8149 5 18.9204 5C18.0259 5 17.1959 5.5 16.7164 6.32812L1.21696 33.3125C0.816236 34.0078 0.601562 34.8125 0.601562 35.6328C0.601562 38.0469 2.39051 40 4.60165 40Z" fill="#132C33"/>
</svg>
